<?xml version="1.0" encoding="UTF-8" standalone="no"?>
<!DOCTYPE svg PUBLIC "-//W3C//DTD SVG 1.1//EN" "http://www.w3.org/Graphics/SVG/1.1/DTD/svg11.dtd">
<svg width="100%" height="100%" viewBox="0 0 850 850" version="1.1" xmlns="http://www.w3.org/2000/svg" xmlns:xlink="http://www.w3.org/1999/xlink" xml:space="preserve" xmlns:serif="http://www.serif.com/" style="fill-rule:evenodd;clip-rule:evenodd;stroke-linejoin:round;stroke-miterlimit:2;">
    <g id="g390" transform="matrix(0.1,0,0,-0.1,0,850)">
        <g transform="matrix(14.292,0,0,-13.044,-1950.23,9741)">
            <ellipse cx="422.798" cy="410.32" rx="284.801" ry="303.152" style="fill:white;"/>
        </g>
        <g transform="matrix(1.22476e-15,-17.8485,-29.266,-1.70523e-15,15843.8,12543.2)">
            <path d="M233.42,365.269L694.387,365.269L689.983,429.863L214.335,429.863L233.42,365.269Z" style="fill:none;"/>
        </g>
        <g transform="matrix(19.2661,0,0,-26.3351,-4790.01,15044.1)">
            <path d="M233.42,365.269L694.387,365.269L689.983,429.863L214.335,429.863L233.42,365.269Z" style="fill:none;"/>
        </g>
        <g id="path143" transform="matrix(10,0,0,-10,0,8500)">
            <path d="M258.037,317.401C258.037,317.401 258.037,317.401 258.037,317.401ZM257.861,317.195C257.861,317.195 257.861,317.195 257.861,317.195ZM248.902,316.558L248.902,316.558L248.902,316.558ZM248.905,316.552L248.905,316.553L248.905,316.552ZM248.909,316.545L248.907,316.548L248.909,316.545ZM248.911,316.539L248.91,316.542L248.911,316.539ZM248.915,316.53L248.913,316.534L248.915,316.53ZM248.917,316.524L248.916,316.528L248.917,316.524ZM248.919,316.518L248.918,316.521L248.919,316.518ZM248.921,316.512L248.92,316.515L248.921,316.512ZM248.923,316.504L248.921,316.51L248.923,316.504ZM248.924,316.498L248.923,316.504C248.923,316.502 248.924,316.5 248.924,316.498ZM248.925,316.492L248.924,316.496L248.925,316.492ZM248.926,316.486L248.925,316.49L248.926,316.486ZM248.926,316.48L248.926,316.484L248.926,316.48ZM248.926,316.472L248.926,316.478L248.926,316.472ZM534.089,307.175C534.084,307.177 534.078,307.18 534.073,307.182C534.078,307.18 534.084,307.177 534.089,307.175ZM534.157,307.148C534.152,307.15 534.146,307.152 534.14,307.154C534.146,307.152 534.152,307.15 534.157,307.148ZM534.229,307.122L534.224,307.124L534.229,307.122ZM452.424,306.377L452.419,306.378L452.424,306.377ZM396.816,275.528L396.816,275.528L396.816,275.528ZM285.426,191.372C295.316,191.861 300.212,192.237 302.525,192.957L313.215,195.158C315.005,195.178 319.594,196.502 324.426,198.372C326.266,199.101 327.491,199.613 328.332,200.151C330.839,201.235 339.79,204.961 341.226,205.572C344.314,206.976 346.198,207.92 347.421,208.906C352.835,212.715 373.015,232.169 376.862,235.791C376.795,235.76 378.79,237.737 380.226,239.772C381.926,242.372 387.16,252.289 387.16,252.289C388.54,253.779 397.832,277.097 397.832,277.097C398.037,277.547 398.232,278.068 398.426,278.672C401.226,287.372 408.426,295.872 416.426,299.972C417.294,300.43 417.976,300.801 418.5,301.135C418.5,301.135 431.791,304.885 432.726,305.072C435.026,305.472 438.626,305.872 440.726,305.972C441.48,305.972 442.08,305.977 442.558,306.015C442.558,306.015 458.243,305.582 462.226,305.272C468.626,304.672 477.926,304.172 482.826,304.172C486.053,304.09 488.099,304.075 489.353,304.186C504.988,304.371 520.243,304.437 535.397,306.973C538.594,307.044 556.061,311.688 560.626,313.772C561.165,314.008 561.701,314.262 562.231,314.532C561.98,314.388 561.722,314.242 561.457,314.095L577.526,321.072L577.526,321.073L582.226,323.972C584.826,325.572 588.426,328.172 590.326,329.672L593.626,332.572L593.626,332.572C593.626,332.572 599.664,339.937 600.226,340.672C603.426,344.772 609.526,358.972 611.326,366.472C615.426,382.972 615.826,390.172 615.526,446.472C615.426,476.172 614.926,509.872 614.326,521.472C613.826,532.972 613.126,559.272 612.726,579.772L612.126,617.072L609.526,619.072C607.126,620.972 605.826,621.072 588.226,620.772C564.126,620.372 565.526,621.472 564.226,602.372C561.026,553.072 554.126,504.272 546.426,476.872C543.726,467.472 539.126,454.272 538.126,453.272C537.926,453.072 534.626,454.072 530.826,455.572C527.491,456.81 523.02,458.155 518.032,459.459C508.515,461.948 497.115,464.291 488.126,465.472C481.082,466.389 474.535,466.965 474.457,466.983C472.12,467.542 459.341,467.972 458.426,467.972C456.906,467.972 445.854,467.667 445.854,467.667C442.417,467.581 429.13,466.972 429.126,466.972C420.126,466.972 377.126,460.372 361.126,456.572L355.326,455.172L353.926,457.972C351.826,462.072 346.026,481.972 343.026,495.272C337.826,518.672 330.026,572.772 327.826,600.472C326.526,617.672 325.526,618.472 303.426,618.472C289.626,618.472 287.526,618.272 284.426,616.372C277.926,612.572 278.126,614.472 279.326,555.572C280.226,506.872 279.826,461.572 277.926,431.472L277.426,422.472L277.428,422.471C277.428,422.471 276.426,395.077 276.426,392.872L276.426,388.672L276.426,388.672L276.426,388.671L276.496,388.682L275.928,380.473L275.926,380.472L275.726,374.472C274.226,339.072 269.926,325.072 258.126,317.472L258.124,317.471C252.516,316.182 252.442,316.354 248.832,316.651C246.594,318.951 205.266,327.304 199.939,326.548C197.538,326.723 194.415,327.059 191.126,327.772C191.126,327.772 188.126,328.372 188.126,328.372C182.026,329.572 174.026,328.972 170.826,327.072C168.418,325.645 162.113,316.584 161.487,314.143C160.131,311.832 158.345,307.254 157.256,304.402C156.591,303.108 156.158,300.866 155.426,297.472C153.626,289.472 154.926,285.372 161.226,278.772C164.226,275.572 195.526,245.272 195.526,245.272C207.326,233.272 218.326,221.472 219.926,219.072L222.926,214.672L222.926,193.572C222.926,178.172 223.326,171.872 224.226,170.172C227.126,165.172 232.526,167.572 247.026,180.572C251.726,184.772 257.326,188.872 259.426,189.872L263.226,191.572L271.926,190.672L285.426,191.372Z" style="fill:#222;fill-rule:nonzero;"/>
        </g>
    </g>
</svg>
